<svg xmlns="http://www.w3.org/2000/svg" viewBox="0 0 1000 580" width="1000" height="580" font-family="Microsoft YaHei, PingFang SC, Noto Sans CJK SC, sans-serif">

<defs>
<marker id="ah" markerWidth="9" markerHeight="9" refX="7.5" refY="3" orient="auto" markerUnits="strokeWidth"><path d="M0,0 L8,3 L0,6 Z" fill="#475569"/></marker>
<marker id="ahb" markerWidth="9" markerHeight="9" refX="7.5" refY="3" orient="auto" markerUnits="strokeWidth"><path d="M0,0 L8,3 L0,6 Z" fill="#1D4ED8"/></marker>
<marker id="ahd" markerWidth="9" markerHeight="9" refX="7.5" refY="3" orient="auto" markerUnits="strokeWidth"><path d="M0,0 L8,3 L0,6 Z" fill="#94A3B8"/></marker>
<marker id="ahg" markerWidth="9" markerHeight="9" refX="7.5" refY="3" orient="auto" markerUnits="strokeWidth"><path d="M0,0 L8,3 L0,6 Z" fill="#15803D"/></marker>
<marker id="ahp" markerWidth="9" markerHeight="9" refX="7.5" refY="3" orient="auto" markerUnits="strokeWidth"><path d="M0,0 L8,3 L0,6 Z" fill="#6D28D9"/></marker>
<marker id="aho" markerWidth="9" markerHeight="9" refX="7.5" refY="3" orient="auto" markerUnits="strokeWidth"><path d="M0,0 L8,3 L0,6 Z" fill="#C2410C"/></marker>
</defs>

<text x="500.0" y="30" font-size="17" fill="#0F172A" text-anchor="middle" font-family="Microsoft YaHei, PingFang SC, Noto Sans CJK SC, sans-serif" style="font-weight:bold;">图3 业务闭环（主链路 + 反馈回路）</text>
<line x1="30" y1="52" x2="56" y2="52" stroke="#1D4ED8" stroke-width="3"/>
<text x="62" y="56" font-size="11.5" fill="#334155" font-family="Microsoft YaHei, PingFang SC, Noto Sans CJK SC, sans-serif">主链路（粗蓝）</text>
<line x1="158.5" y1="52" x2="184.5" y2="52" stroke="#15803D" stroke-width="3"/>
<text x="190.5" y="56" font-size="11.5" fill="#334155" font-family="Microsoft YaHei, PingFang SC, Noto Sans CJK SC, sans-serif">业务效果回路</text>
<line x1="275.5" y1="52" x2="301.5" y2="52" stroke="#6D28D9" stroke-width="3"/>
<text x="307.5" y="56" font-size="11.5" fill="#334155" font-family="Microsoft YaHei, PingFang SC, Noto Sans CJK SC, sans-serif">模型迭代回路</text>
<line x1="392.5" y1="52" x2="418.5" y2="52" stroke="#C2410C" stroke-width="3"/>
<text x="424.5" y="56" font-size="11.5" fill="#334155" font-family="Microsoft YaHei, PingFang SC, Noto Sans CJK SC, sans-serif">运营监控回路</text>
<rect x="20" y="110" width="130" height="76" rx="9" ry="9" fill="#DBEAFE" stroke="#1E40AF" stroke-width="1.6"/>
<text x="85.0" y="143.4" font-size="11.5" fill="#1E293B" text-anchor="middle" font-family="Microsoft YaHei, PingFang SC, Noto Sans CJK SC, sans-serif" style="">坐席发起提问</text>
<text x="85.0" y="159.9" font-size="11.5" fill="#1E293B" text-anchor="middle" font-family="Microsoft YaHei, PingFang SC, Noto Sans CJK SC, sans-serif" style="">工作台 WS</text>
<line x1="150" y1="148.0" x2="160" y2="148.0" stroke="#1D4ED8" stroke-width="3" marker-end="url(#ahb)"/>
<rect x="160" y="110" width="130" height="76" rx="9" ry="9" fill="#DBEAFE" stroke="#1E40AF" stroke-width="1.6"/>
<text x="225.0" y="143.4" font-size="11.5" fill="#1E293B" text-anchor="middle" font-family="Microsoft YaHei, PingFang SC, Noto Sans CJK SC, sans-serif" style="">对话编排</text>
<text x="225.0" y="159.9" font-size="11.5" fill="#1E293B" text-anchor="middle" font-family="Microsoft YaHei, PingFang SC, Noto Sans CJK SC, sans-serif" style="">LangGraph 7节点</text>
<line x1="290" y1="148.0" x2="300" y2="148.0" stroke="#1D4ED8" stroke-width="3" marker-end="url(#ahb)"/>
<rect x="300" y="110" width="130" height="76" rx="9" ry="9" fill="#DBEAFE" stroke="#1E40AF" stroke-width="1.6"/>
<text x="365.0" y="143.4" font-size="11.5" fill="#1E293B" text-anchor="middle" font-family="Microsoft YaHei, PingFang SC, Noto Sans CJK SC, sans-serif" style="">RAG检索 / MCP工具</text>
<text x="365.0" y="159.9" font-size="11.5" fill="#1E293B" text-anchor="middle" font-family="Microsoft YaHei, PingFang SC, Noto Sans CJK SC, sans-serif" style="">命中知识库·工单·只读</text>
<line x1="430" y1="148.0" x2="440" y2="148.0" stroke="#1D4ED8" stroke-width="3" marker-end="url(#ahb)"/>
<rect x="440" y="110" width="130" height="76" rx="9" ry="9" fill="#DBEAFE" stroke="#1E40AF" stroke-width="1.6"/>
<text x="505.0" y="143.4" font-size="11.5" fill="#1E293B" text-anchor="middle" font-family="Microsoft YaHei, PingFang SC, Noto Sans CJK SC, sans-serif" style="">回复 + 引用气泡</text>
<text x="505.0" y="159.9" font-size="11.5" fill="#1E293B" text-anchor="middle" font-family="Microsoft YaHei, PingFang SC, Noto Sans CJK SC, sans-serif" style="">可溯源</text>
<line x1="570" y1="148.0" x2="580" y2="148.0" stroke="#1D4ED8" stroke-width="3" marker-end="url(#ahb)"/>
<rect x="580" y="110" width="130" height="76" rx="9" ry="9" fill="#DBEAFE" stroke="#1E40AF" stroke-width="1.6"/>
<text x="645.0" y="143.4" font-size="11.5" fill="#1E293B" text-anchor="middle" font-family="Microsoft YaHei, PingFang SC, Noto Sans CJK SC, sans-serif" style="">工单创建流转</text>
<text x="645.0" y="159.9" font-size="11.5" fill="#1E293B" text-anchor="middle" font-family="Microsoft YaHei, PingFang SC, Noto Sans CJK SC, sans-serif" style="">MCP 工单域</text>
<line x1="710" y1="148.0" x2="720" y2="148.0" stroke="#1D4ED8" stroke-width="3" marker-end="url(#ahb)"/>
<rect x="720" y="110" width="130" height="76" rx="9" ry="9" fill="#DBEAFE" stroke="#1E40AF" stroke-width="1.6"/>
<text x="785.0" y="143.4" font-size="11.5" fill="#1E293B" text-anchor="middle" font-family="Microsoft YaHei, PingFang SC, Noto Sans CJK SC, sans-serif" style="">对话评估</text>
<text x="785.0" y="159.9" font-size="11.5" fill="#1E293B" text-anchor="middle" font-family="Microsoft YaHei, PingFang SC, Noto Sans CJK SC, sans-serif" style="">LLM-as-Judge 5维+幻觉</text>
<line x1="850" y1="148.0" x2="860" y2="148.0" stroke="#1D4ED8" stroke-width="3" marker-end="url(#ahb)"/>
<rect x="860" y="110" width="130" height="76" rx="9" ry="9" fill="#DBEAFE" stroke="#1E40AF" stroke-width="1.6"/>
<text x="925.0" y="143.4" font-size="11.5" fill="#1E293B" text-anchor="middle" font-family="Microsoft YaHei, PingFang SC, Noto Sans CJK SC, sans-serif" style="">复盘</text>
<text x="925.0" y="159.9" font-size="11.5" fill="#1E293B" text-anchor="middle" font-family="Microsoft YaHei, PingFang SC, Noto Sans CJK SC, sans-serif" style="">持续优化</text>
<rect x="440" y="360" width="130" height="60" rx="9" ry="9" fill="#FFEDD5" stroke="#C2410C" stroke-width="1.6"/>
<text x="505.0" y="385.3" font-size="12" fill="#1E293B" text-anchor="middle" font-family="Microsoft YaHei, PingFang SC, Noto Sans CJK SC, sans-serif" style="">可观测</text>
<text x="505.0" y="402.3" font-size="12" fill="#1E293B" text-anchor="middle" font-family="Microsoft YaHei, PingFang SC, Noto Sans CJK SC, sans-serif" style="">Grafana 告警</text>
<path d="M 925 200 C 925 270, 365 270, 365 200" fill="none" stroke="#15803D" stroke-width="1.8" stroke-dasharray="6 4" marker-end="url(#ahg)"/>
<rect x="572.8" y="229.5" width="144.4" height="17" rx="3" fill="#ffffff" stroke="#E2E8F0"/>
<text x="645.0" y="242.5" font-size="11" fill="#15803D" text-anchor="middle" font-family="Microsoft YaHei, PingFang SC, Noto Sans CJK SC, sans-serif">Recall/MRR → 检索/分块优化</text>
<path d="M 925 215 C 925 365, 225 365, 225 215" fill="none" stroke="#6D28D9" stroke-width="1.8" stroke-dasharray="6 4" marker-end="url(#ahp)"/>
<rect x="526.7" y="288.5" width="96.7" height="17" rx="3" fill="#ffffff" stroke="#E2E8F0"/>
<text x="575.0" y="301.5" font-size="11" fill="#6D28D9" text-anchor="middle" font-family="Microsoft YaHei, PingFang SC, Noto Sans CJK SC, sans-serif">评分 → 提示词/检索调优</text>
<line x1="645" y1="186" x2="505" y2="360" stroke="#C2410C" stroke-width="1.6" stroke-dasharray="6 4" marker-end="url(#aho)"/>
<rect x="557.4" y="264.0" width="35.3" height="17" rx="3" fill="#ffffff" stroke="#E2E8F0"/>
<text x="575.0" y="277.0" font-size="11" fill="#C2410C" text-anchor="middle" font-family="Microsoft YaHei, PingFang SC, Noto Sans CJK SC, sans-serif">告警数据</text>
<path d="M 505 360 C 505 450, 85 276, 85 186" fill="none" stroke="#C2410C" stroke-width="1.8" stroke-dasharray="6 4" marker-end="url(#aho)"/>
<rect x="246.7" y="400.5" width="96.7" height="17" rx="3" fill="#ffffff" stroke="#E2E8F0"/>
<text x="295.0" y="413.5" font-size="11" fill="#C2410C" text-anchor="middle" font-family="Microsoft YaHei, PingFang SC, Noto Sans CJK SC, sans-serif">告警 → SRE/运维响应</text>
<rect x="20" y="470" width="960" height="70" rx="9" ry="9" fill="#F1F5F9" stroke="#64748B" stroke-width="1.6"/>
<text x="500.0" y="509.0" font-size="12.5" fill="#1E293B" text-anchor="middle" font-family="Microsoft YaHei, PingFang SC, Noto Sans CJK SC, sans-serif" style="">运营主线：每日查看 Grafana 面板与工单量；每周复盘 RAG 评测指标（Recall/MRR），驱动检索策略与提示词调优</text>
</svg>